<svg height='100px' width='100px'  fill="#F3F3F3" xmlns="http://www.w3.org/2000/svg" viewBox="0 0 88.24 103.84" x="0px" y="0px"><title>uygulama_yonetim-</title><g data-name="Layer 2"><g data-name="Layer 1"><path d="M67.86,77.3H46v1.3h21.3l8.62,10.07H12.07L20.2,78.6H35.84V77.3H20.2a1.35,1.35,0,0,0-1,.5L9.35,90H78.7Z"></path><path d="M88,95.82a2.1,2.1,0,0,0-.46-.77L70.71,75.24a1.85,1.85,0,0,0-1.46-.7H47.9v1.3H69.25a.57.57,0,0,1,.46.22l16.17,19H2.6L18.32,76a.55.55,0,0,1,.43-.2H33.63v-1.3H18.75a1.83,1.83,0,0,0-1.44.69L.86,95.15l-.1.11-.17.19A1.47,1.47,0,0,0,0,96.64v5.64a1.56,1.56,0,0,0,1.56,1.56H86.68a1.56,1.56,0,0,0,1.56-1.56V96.64A1.65,1.65,0,0,0,88,95.82Zm-1.07,6.47a.26.26,0,0,1-.26.26H1.56a.26.26,0,0,1-.26-.26V96.64c0-.25.38-.26.46-.26h85a.36.36,0,0,1,.15.27Z"></path><path d="M19.9,61.52a2.2,2.2,0,0,0,2.21-2.2v-.57h.12A2.2,2.2,0,0,0,23.9,58h0a2.2,2.2,0,0,0,2.2-2.2v-2.2a3.77,3.77,0,0,0-.73-1.88,2.38,2.38,0,0,0-1.66-1.81,1,1,0,0,0,.05-.27,1,1,0,0,0-1-1h-.24a2.6,2.6,0,0,0,2-1.45A1.94,1.94,0,0,0,24,45.08a1,1,0,0,0-.95-.29,1.7,1.7,0,0,0-.87.75V21.47H20.9V45.76A1.82,1.82,0,0,0,20,44.9a1,1,0,0,0-.95.29,1.94,1.94,0,0,0-.54,2.07,2.44,2.44,0,0,0,1.7,1.37A1,1,0,0,0,19.29,50c-.67.34-1.73,1.3-3.42,4a2.2,2.2,0,0,0,.55,3l.13.09a2.18,2.18,0,0,0,1.14.4v1.82A2.2,2.2,0,0,0,19.9,61.52ZM23.3,45.79a1,1,0,0,1,.31,1,1.66,1.66,0,0,1-1.28.83A4.06,4.06,0,0,1,23.3,45.79ZM19.4,46.9a1.06,1.06,0,0,1,.29-1,4.15,4.15,0,0,1,1,1.87A1.66,1.66,0,0,1,19.4,46.9ZM17.31,56l-.13-.09A.9.9,0,0,1,17,54.69s2.25-3.62,3.11-3.62h3a1.08,1.08,0,0,1,1.08,1.08,4.38,4.38,0,0,1,.69,1.42v2.2a.9.9,0,0,1-.9.9h-.12a.9.9,0,0,1-.67-.3v.17a.9.9,0,0,1-.9.9H21.7a.9.9,0,0,1-.89-.79v2.67a.9.9,0,0,1-.9.9h0a.9.9,0,0,1-.9-.9V55.6s0,0,0-.06,0,0,0-.06v-.26l-.44.62a.9.9,0,0,1-1.25.21Z"></path><path d="M51,54.61a2,2,0,0,0,2-2v-.21a2,2,0,0,0,1.3-.62,2,2,0,0,0,1.92-2V48a2.88,2.88,0,0,0-.6-1.61,2.17,2.17,0,0,0-1.57-1.62.91.91,0,0,0,.17-.5.93.93,0,0,0-.63-.87,2,2,0,0,0,1.21-1.06,1.65,1.65,0,0,0-.46-1.76.86.86,0,0,0-.85-.25,1.17,1.17,0,0,0-.54.36V22.6H51.7V40.81a1.24,1.24,0,0,0-.6-.43.86.86,0,0,0-.85.25,1.65,1.65,0,0,0-.46,1.76,1.91,1.91,0,0,0,1.1,1,.93.93,0,0,0-.54.84.92.92,0,0,0,.19.54c-.58.24-1.49,1-3,3.37a2,2,0,0,0,.51,2.78l.11.07a2,2,0,0,0,.81.34v1.23A2,2,0,0,0,51,54.61Zm2.71-13.29a.64.64,0,0,1,.18.65,1.1,1.1,0,0,1-.78.56A4.19,4.19,0,0,1,53.74,41.32Zm-3,.73a.64.64,0,0,1,.18-.65,4.22,4.22,0,0,1,.6,1.21A1.1,1.1,0,0,1,50.73,42ZM49,50l-.11-.07a.72.72,0,0,1-.17-1s1.8-2.9,2.49-2.9h2.38a.87.87,0,0,1,.86.86A3.51,3.51,0,0,1,55,48v1.76a.72.72,0,0,1-.72.72h-.1a.72.72,0,0,1-.53-.24v.14a.72.72,0,0,1-.72.72h-.42a.72.72,0,0,1-.71-.63v2.14a.72.72,0,0,1-.72.72h0a.72.72,0,0,1-.72-.72v-3s0,0,0-.05,0,0,0-.05V49.3l-.35.49A.72.72,0,0,1,49,50Z"></path><path d="M27.51,19.87a9.13,9.13,0,0,0,3.77,3.33V24a1.22,1.22,0,0,0,1.22,1.22H47.06a1.19,1.19,0,0,0,.72-.26h0l0,0a1.18,1.18,0,0,0,.19-.18l4.22-4.09H74.44V15H61.5a2.28,2.28,0,0,0-.64-1.82A38.65,38.65,0,0,0,58,10.29c.51-.61.74-1.79.74-3.73C58.75.08,45.26,0,45.13,0c-2.64,0-4.2,3-4.23,3.1a2.3,2.3,0,0,0-.25.49,25,25,0,0,0-4.3,1.25L31.12,7.32l-.09.1a18.22,18.22,0,0,0-3.53,6.74H14.7v5.28H27.31A3.12,3.12,0,0,0,27.51,19.87Zm24.13-3.66L47,17.51H35l2.38-1.24c9.4-2.58,13.47-1.29,14.85-.56Zm-3.41,2.3,3.07-.86v2.05l-3,2.93V18.73A1.14,1.14,0,0,0,48.24,18.51Zm-15.66.3H47v5.07H32.58Zm40.56.52H52.6V17.1l1-.79H73.14Zm-28-18c3.2,0,12.32,1,12.32,5.26,0,2.26-.35,2.81-.42,2.9l-.16-.1a7,7,0,0,0-1.21-2.73A5.76,5.76,0,0,0,55.18,6h0V6h0a7.24,7.24,0,0,0-1.61-1.36h0l-.08-.05-.32-.2L53,4.32a8.88,8.88,0,0,0-4.21-1.2h-.06a24.68,24.68,0,0,0-6.43.18C42.76,2.59,43.78,1.3,45.13,1.3ZM31.92,8.38l5-2.36A24.61,24.61,0,0,1,41.4,4.76h.08c.22,0,.46-.09.72-.12a23.74,23.74,0,0,1,6.5-.2h0a7.57,7.57,0,0,1,3.61,1l.1.06h0l.16.09.19.12.09.06.35-.55-.34.55a6,6,0,0,1,1.36,1.15,4.7,4.7,0,0,1,.39.48,5.5,5.5,0,0,1,1,2.39l0,.26.19.19a2.09,2.09,0,0,0,.68.45A45.07,45.07,0,0,1,59.87,14a1.15,1.15,0,0,1,.35.78.43.43,0,0,1-.09.2H53.56c-1-.76-5.14-3.13-16.58,0l-.13.05L32,17.61l0,0-.09.05h0a1.2,1.2,0,0,0-.62,1v3a7.51,7.51,0,0,1-2.66-2.52C27.47,17.28,29.25,11.47,31.92,8.38ZM16,18.14V15.46H27.19A9.61,9.61,0,0,0,27,18.14Z"></path><path d="M42.13,10.64a2,2,0,0,1,1.1-.32V9a3.08,3.08,0,0,0-1.66.82A10.72,10.72,0,0,0,40.47,11a21.76,21.76,0,0,0-1.79,2.49,21.42,21.42,0,0,1,2.24-2A9.88,9.88,0,0,1,42.13,10.64Z"></path><path d="M35.42,10.26a6.13,6.13,0,0,1,2.18-.9L37.27,8.1a7,7,0,0,0-4.11,3.57,11.08,11.08,0,0,0-1.07,5.13A10.75,10.75,0,0,1,33.72,12,6.5,6.5,0,0,1,35.42,10.26Z"></path><path d="M64.84,72.55a2.33,2.33,0,0,0,2.34-2.33v-.84h.32a2.32,2.32,0,0,0,1.82-.88h.1a2.33,2.33,0,0,0,2.33-2.33V63.66a4.19,4.19,0,0,0-.83-2.08,2.53,2.53,0,0,0-1.71-1.94,1.05,1.05,0,0,0-1-1h-.75v-.08a3.15,3.15,0,0,0,2.72-1.7,2.15,2.15,0,0,0-.61-2.29,1,1,0,0,0-1-.31,2.14,2.14,0,0,0-1.1,1.07V21.94h-1.3V55.62A2.33,2.33,0,0,0,65,54.4a1,1,0,0,0-1,.31A2.15,2.15,0,0,0,63.33,57a3,3,0,0,0,2.51,1.67h-.57a1.06,1.06,0,0,0-1.06,1.05c-.73.37-1.9,1.44-3.82,4.51A2.33,2.33,0,0,0,61,67.44l.15.11a2.31,2.31,0,0,0,1.34.43h0v2.26A2.33,2.33,0,0,0,64.84,72.55Zm4-17.25a1.18,1.18,0,0,1,.38,1.23,2.06,2.06,0,0,1-1.64,1C68,56.35,68.52,55.32,68.84,55.3Zm-4.57,1.34a1.23,1.23,0,0,1,.42-1.28c.29.06.82,1.1,1.22,2.3A2.06,2.06,0,0,1,64.27,56.64Zm-1.79,10a1,1,0,0,1-.59-.19l-.15-.11a1,1,0,0,1-.24-1.43s2.57-4.13,3.56-4.13h3.4A1.24,1.24,0,0,1,69.68,62a5,5,0,0,1,.79,1.62v2.51a1,1,0,0,1-1,1H69.3a1,1,0,0,1-.76-.34v.2a1,1,0,0,1-1,1h-.6a1,1,0,0,1-1-.9v3a1,1,0,0,1-1,1h0a1,1,0,0,1-1-1V66s0,0,0-.07,0,0,0-.07v-.3l-.5.7A1,1,0,0,1,62.48,66.67Z"></path><path d="M38.53,92.85c0,1.32,1.25,1.78,4.77,1.78s4.77-.47,4.77-1.78-1.25-1.78-4.77-1.78S38.53,91.53,38.53,92.85Zm8.23,0c0,.27-1.55.48-3.47.48s-3.47-.22-3.47-.48,1.55-.48,3.47-.48S46.76,92.58,46.76,92.85Z"></path><path d="M36,75.95l.15.11a2.33,2.33,0,0,0,1.36.43h.07v2.34h0a2.34,2.34,0,0,0,.19.91,2.36,2.36,0,0,0,4.34,0,2.29,2.29,0,0,0,.14-.44,2.36,2.36,0,0,0,0-.47h0v-.89h.36a2.35,2.35,0,0,0,1.85-.9h.12a2.35,2.35,0,0,0,2.17-1.44,2.32,2.32,0,0,0,.14-.44,2.36,2.36,0,0,0,0-.47h0V72.11h0A4.27,4.27,0,0,0,46.09,70a2.57,2.57,0,0,0-1.63-1.94L44.23,68a1.06,1.06,0,0,0,.08-.41,1.07,1.07,0,0,0-1.07-1.07h-.78v-.1a3.21,3.21,0,0,0,2.78-1.74,2.18,2.18,0,0,0-.62-2.33,1,1,0,0,0-1-.31,2.22,2.22,0,0,0-1.14,1.12V27.63h-1.3V63.44a2.42,2.42,0,0,0-1.23-1.29,1,1,0,0,0-1,.31,2.18,2.18,0,0,0-.62,2.33A3.16,3.16,0,0,0,41,66.52h-.71a1.07,1.07,0,0,0-1.07,1.07,1,1,0,0,0,.13.48c-.73.34-1.94,1.39-4,4.64a2.33,2.33,0,0,0-.36.85A2.37,2.37,0,0,0,35,74,2.35,2.35,0,0,0,36,75.95Zm8-12.89a1.22,1.22,0,0,1,.39,1.27,2.13,2.13,0,0,1-1.7,1.05C43,64.13,43.58,63.06,43.93,63.05Zm1.58,8.59a1.32,1.32,0,0,1,.13.47v2.57a1.05,1.05,0,0,1-1.05,1.05h-.14a1,1,0,0,1-.78-.35h0v.2a1.05,1.05,0,0,1-1.05,1.05H42a1,1,0,0,1-.7-.27,1.07,1.07,0,0,1-.23-.29,1,1,0,0,1-.11-.36h0v3.11a1.05,1.05,0,0,1-1.05,1.05h0a1.05,1.05,0,0,1-1.05-1.05V74.48s0-.05,0-.07h0v0s0,0,0,0V74h0l-.51.72a1,1,0,0,1-.61.41l-.24,0a1,1,0,0,1-.6-.19l-.15-.11a1,1,0,0,1-.28-.3,1.06,1.06,0,0,1,0-1.16s2.63-4.22,3.64-4.22h3.47a1.26,1.26,0,0,1,1.26,1.26s.11.16.25.39A6.45,6.45,0,0,1,45.51,71.65Zm-6.28-7.21a1.26,1.26,0,0,1,.44-1.33c.29.05.85,1.13,1.26,2.38A2.13,2.13,0,0,1,39.23,64.44Z"></path></g></g></svg>