<?xml version="1.0" standalone="no"?>
<!DOCTYPE svg PUBLIC "-//W3C//DTD SVG 20010904//EN"
 "http://www.w3.org/TR/2001/REC-SVG-20010904/DTD/svg10.dtd">
<svg version="1.0" xmlns="http://www.w3.org/2000/svg"
 width="38.000000pt" height="38.000000pt" viewBox="0 0 172.000000 172.000000"
 preserveAspectRatio="xMidYMid meet">
<metadata>
Created by Docfx
</metadata>
<g transform="scale(4, 4)"
fill="#dddddd" stroke="none">
<path class="st0" d="M4.6,32c-0.8,0-1.9-1.5-1.9-3c0-0.2,0-0.4,0.1-0.6c1-4.8,3.6-10.7,6.7-16c0.4-0.7,1.7-1.1,2.8-1.1
		c1,0,1.8,0.3,1.8,0.8c0,0.1,0,0.3-0.2,0.4c-1.5,2.2-3.1,5-4.6,8.1c8.6-2.2,15.1-7.5,15.1-11.9c0-2-1.4-2.9-3.5-2.9
		c-5.4,0-10.3,3.3-17,8.9C3.7,15,3.6,15,3.5,15c-0.6,0-1.2-0.8-1.2-1.5c0-0.2,0.1-0.5,0.3-0.6c6.9-6.4,13.6-9.4,19.8-9.4
		c4.1,0,6.8,1.7,6.8,5.3c0,4.9-5.2,9.5-12.7,12.3c-2.1,0.7-6.1,1.9-6.8,1.9c-0.4,0-0.8-0.2-1-0.6c-1.4,3-2.6,6.1-3.3,8.8
		C5.1,31.8,4.9,32,4.6,32z"/>
	<path class="st0" d="M29.6,24.1c-0.7,1.6-1.3,3.3-2,5c-0.2,0.5-0.5,0.7-0.7,0.7c-0.4,0-0.8-0.7-0.8-1.6c0-0.4,0.1-0.8,0.2-1.2
		l1-2.7c-2.4,0.4-3.7,0.7-3.9,0.7c-0.2,0-0.3-0.2-0.3-0.3c0-0.7,0.9-2,1.7-2.2c1.2-0.2,2.4-0.4,3.6-0.6c0.5-1.2,1-2.3,1.6-3.4
		c-2.2,0.3-3.5,0.6-3.6,0.6c-0.2,0-0.3-0.2-0.3-0.3c0-0.7,0.9-2,1.7-2.2l3.4-0.6l1.7-3.3c0.2-0.5,0.9-0.7,1.5-0.7
		c0.4,0,0.8,0.2,0.8,0.5c0,0.1,0,0.2-0.1,0.2l-1.5,2.9l3.1-0.3l1.7-3.3c0.2-0.5,0.9-0.7,1.5-0.7c0.4,0,0.8,0.2,0.8,0.5
		c0,0.1,0,0.2-0.1,0.2c-0.6,1-1.1,2.1-1.7,3.1C40,15,41.2,15,42.3,15c0.4,0,0.5,0.3,0.5,0.8c0,0.7-0.5,1.8-1.2,1.8
		c-1.3,0-2.7,0-4.1,0.1c-0.5,1.2-1.1,2.3-1.6,3.5c1.1-0.1,2.2-0.1,3.4-0.1c0.4,0,0.5,0.3,0.5,0.8c0,0.7-0.5,1.8-1.2,1.8
		c-1.2,0-2.4,0-3.8,0.1c-0.7,1.5-1.3,3.2-1.9,4.8c-0.2,0.5-0.5,0.7-0.7,0.7c-0.4,0-0.8-0.7-0.8-1.6c0-0.4,0.1-0.8,0.2-1.2l1-2.6
		C31.7,23.8,30.6,23.9,29.6,24.1z M32.2,18.1c-0.5,1.2-1.1,2.3-1.6,3.5c1-0.2,2.1-0.3,3.2-0.3c0.5-1.2,1-2.3,1.6-3.5l-1.5,0.2
		L32.2,18.1z"/>
</g>
</svg>
